<svg width="21" height="20" viewBox="0 0 21 20" fill="none" xmlns="http://www.w3.org/2000/svg">
<path d="M3.25 3.5C3.25 3.22386 3.47386 3 3.75 3H8.41667C8.69281 3 8.91667 3.22386 8.91667 3.5V8.16667C8.91667 8.44281 8.69281 8.66667 8.41667 8.66667H3.75C3.47386 8.66667 3.25 8.44281 3.25 8.16667V3.5Z" stroke="#A1A7B3"/>
<path d="M3.25 11.8333C3.25 11.5572 3.47386 11.3333 3.75 11.3333H8.41667C8.69281 11.3333 8.91667 11.5572 8.91667 11.8333V16.5C8.91667 16.7762 8.69281 17 8.41667 17H3.75C3.47386 17 3.25 16.7762 3.25 16.5V11.8333Z" stroke="#A1A7B3"/>
<path d="M11.5834 3.5C11.5834 3.22386 11.8072 3 12.0834 3H16.75C17.0262 3 17.25 3.22386 17.25 3.5V8.16667C17.25 8.44281 17.0262 8.66667 16.75 8.66667H12.0834C11.8072 8.66667 11.5834 8.44281 11.5834 8.16667V3.5Z" stroke="#A1A7B3"/>
<path d="M11.5834 11.8333C11.5834 11.5572 11.8072 11.3333 12.0834 11.3333H16.75C17.0262 11.3333 17.25 11.5572 17.25 11.8333V16.5C17.25 16.7762 17.0262 17 16.75 17H12.0834C11.8072 17 11.5834 16.7762 11.5834 16.5V11.8333Z" stroke="#A1A7B3"/>
</svg>
