<svg width="20" height="20" viewBox="0 0 20 20" fill="none" xmlns="http://www.w3.org/2000/svg">
<path fill-rule="evenodd" clip-rule="evenodd" d="M17.0834 2.50008H12.9167C12.6866 2.50008 12.5 2.68663 12.5 2.91675V7.08341C12.5 7.31353 12.6866 7.50008 12.9167 7.50008H17.0834C17.3135 7.50008 17.5 7.31353 17.5 7.08341V2.91675C17.5 2.68663 17.3135 2.50008 17.0834 2.50008ZM12.9167 1.66675C12.2263 1.66675 11.6667 2.22639 11.6667 2.91675V7.08341C11.6667 7.77377 12.2263 8.33341 12.9167 8.33341H17.0834C17.7737 8.33341 18.3334 7.77377 18.3334 7.08341V2.91675C18.3334 2.22639 17.7737 1.66675 17.0834 1.66675H12.9167Z" fill="#3D424D"/>
<path fill-rule="evenodd" clip-rule="evenodd" d="M7.08335 12.5001H2.91669C2.68657 12.5001 2.50002 12.6866 2.50002 12.9167V17.0834C2.50002 17.3135 2.68657 17.5001 2.91669 17.5001H7.08335C7.31347 17.5001 7.50002 17.3135 7.50002 17.0834V12.9167C7.50002 12.6866 7.31347 12.5001 7.08335 12.5001ZM2.91669 11.6667C2.22633 11.6667 1.66669 12.2264 1.66669 12.9167V17.0834C1.66669 17.7738 2.22633 18.3334 2.91669 18.3334H7.08335C7.77371 18.3334 8.33335 17.7738 8.33335 17.0834V12.9167C8.33335 12.2264 7.77371 11.6667 7.08335 11.6667H2.91669Z" fill="#3D424D"/>
<path fill-rule="evenodd" clip-rule="evenodd" d="M12.3779 8.21133L8.21126 12.378L7.62201 11.7887L11.7887 7.62207L12.3779 8.21133Z" fill="#3D424D"/>
</svg>
