<svg width="20" height="20" viewBox="0 0 20 20" fill="none" xmlns="http://www.w3.org/2000/svg">
<path fill-rule="evenodd" clip-rule="evenodd" d="M17.0834 2.49999H12.9167C12.6866 2.49999 12.5 2.68654 12.5 2.91666V7.08332C12.5 7.31344 12.6866 7.49999 12.9167 7.49999H17.0834C17.3135 7.49999 17.5 7.31344 17.5 7.08332V2.91666C17.5 2.68654 17.3135 2.49999 17.0834 2.49999ZM12.9167 1.66666C12.2263 1.66666 11.6667 2.2263 11.6667 2.91666V7.08332C11.6667 7.77368 12.2263 8.33332 12.9167 8.33332H17.0834C17.7737 8.33332 18.3334 7.77368 18.3334 7.08332V2.91666C18.3334 2.2263 17.7737 1.66666 17.0834 1.66666H12.9167Z" fill="#A1A7B3"/>
<path fill-rule="evenodd" clip-rule="evenodd" d="M7.08335 12.5H2.91669C2.68657 12.5 2.50002 12.6865 2.50002 12.9167V17.0833C2.50002 17.3134 2.68657 17.5 2.91669 17.5H7.08335C7.31347 17.5 7.50002 17.3134 7.50002 17.0833V12.9167C7.50002 12.6865 7.31347 12.5 7.08335 12.5ZM2.91669 11.6667C2.22633 11.6667 1.66669 12.2263 1.66669 12.9167V17.0833C1.66669 17.7737 2.22633 18.3333 2.91669 18.3333H7.08335C7.77371 18.3333 8.33335 17.7737 8.33335 17.0833V12.9167C8.33335 12.2263 7.77371 11.6667 7.08335 11.6667H2.91669Z" fill="#A1A7B3"/>
<path fill-rule="evenodd" clip-rule="evenodd" d="M12.3779 8.2113L8.21126 12.378L7.62201 11.7887L11.7887 7.62204L12.3779 8.2113Z" fill="#A1A7B3"/>
</svg>
