<svg width="21" height="20" viewBox="0 0 21 20" fill="none" xmlns="http://www.w3.org/2000/svg">
<g clip-path="url(#clip0_111_1458)">
<path d="M3.5 3.5C3.5 3.22386 3.72386 3 4 3H8.66667C8.94281 3 9.16667 3.22386 9.16667 3.5V8.16667C9.16667 8.44281 8.94281 8.66667 8.66667 8.66667H4C3.72386 8.66667 3.5 8.44281 3.5 8.16667V3.5Z" stroke="#3D424D"/>
<path d="M3.5 11.8333C3.5 11.5571 3.72386 11.3333 4 11.3333H8.66667C8.94281 11.3333 9.16667 11.5571 9.16667 11.8333V16.4999C9.16667 16.7761 8.94281 16.9999 8.66667 16.9999H4C3.72386 16.9999 3.5 16.7761 3.5 16.4999V11.8333Z" stroke="#3D424D"/>
<path d="M11.8334 3.5C11.8334 3.22386 12.0572 3 12.3334 3H17C17.2762 3 17.5 3.22386 17.5 3.5V8.16667C17.5 8.44281 17.2762 8.66667 17 8.66667H12.3334C12.0572 8.66667 11.8334 8.44281 11.8334 8.16667V3.5Z" stroke="#3D424D"/>
<path d="M13 11.25H12.75C12.1977 11.25 11.75 11.6977 11.75 12.25V16.0833C11.75 16.6356 12.1977 17.0833 12.75 17.0833H16.5833C17.1356 17.0833 17.5833 16.6356 17.5833 16.0833V15.8333" stroke="#3D424D"/>
<path d="M13.8334 12.5L15.5 14.1667L19.6667 10" stroke="#3D424D" stroke-linejoin="round"/>
</g>
<defs>
<clipPath id="clip0_111_1458">
<rect width="20" height="20" fill="white" transform="translate(0.5)"/>
</clipPath>
</defs>
</svg>
