<svg width="44" height="44" viewBox="0 0 44 44" fill="none" xmlns="http://www.w3.org/2000/svg">
<rect width="44" height="44" rx="22" fill="#DADDE5"/>
<path fill-rule="evenodd" clip-rule="evenodd" d="M22 31C26.9706 31 31 26.9706 31 22C31 17.0294 26.9706 13 22 13C17.0294 13 13 17.0294 13 22C13 26.9706 17.0294 31 22 31ZM22 32C27.5228 32 32 27.5228 32 22C32 16.4772 27.5228 12 22 12C16.4772 12 12 16.4772 12 22C12 27.5228 16.4772 32 22 32Z" fill="#11141A"/>
<path fill-rule="evenodd" clip-rule="evenodd" d="M21.5 15H22.5V21.7929L25.3536 24.6464L24.6464 25.3536L21.5 22.2071V15Z" fill="#11141A"/>
</svg>
