<svg width="24" height="24" viewBox="0 0 24 24" fill="none" xmlns="http://www.w3.org/2000/svg">
<mask id="path-1-inside-1_111_2867" fill="white">
<path fill-rule="evenodd" clip-rule="evenodd" d="M21.9995 11.8995C20.729 13.1957 18.9584 14 17 14C13.134 14 10 10.866 10 6.99997C10 5.04155 10.8042 3.27097 12.1005 2.00049C12.067 2.00017 12.0335 2 12 2C6.47715 2 2 6.47715 2 12C2 17.5228 6.47715 22 12 22C17.5228 22 22 17.5228 22 12C22 11.9664 21.9998 11.9329 21.9995 11.8995Z"/>
</mask>
<path d="M21.9995 11.8995L22.9995 11.8896L22.9757 9.47488L21.2853 11.1995L21.9995 11.8995ZM12.1005 2.00049L12.8005 2.71466L14.5251 1.02431L12.1103 1.00054L12.1005 2.00049ZM21.2853 11.1995C20.1952 12.3118 18.6789 13 17 13V15C19.238 15 21.2629 14.0797 22.7137 12.5994L21.2853 11.1995ZM17 13C13.6863 13 11 10.3137 11 6.99997H9C9 11.4183 12.5817 15 17 15V13ZM11 6.99997C11 5.32112 11.6882 3.80481 12.8005 2.71466L11.4005 1.28633C9.92028 2.73714 9 4.76199 9 6.99997H11ZM12 3C12.0303 3 12.0605 3.00015 12.0906 3.00045L12.1103 1.00054C12.0736 1.00018 12.0368 1 12 1V3ZM3 12C3 7.02944 7.02944 3 12 3V1C5.92487 1 1 5.92487 1 12H3ZM12 21C7.02944 21 3 16.9706 3 12H1C1 18.0751 5.92487 23 12 23V21ZM21 12C21 16.9706 16.9706 21 12 21V23C18.0751 23 23 18.0751 23 12H21ZM20.9996 11.9093C20.9999 11.9395 21 11.9697 21 12H23C23 11.9632 22.9998 11.9264 22.9995 11.8896L20.9996 11.9093Z" fill="black" mask="url(#path-1-inside-1_111_2867)"/>
</svg>
