<svg width="24" height="24" viewBox="0 0 24 24" fill="none" xmlns="http://www.w3.org/2000/svg">
<path d="M5.5 5C5.5 3.61929 6.61929 2.5 8 2.5H12C13.3807 2.5 14.5 3.61929 14.5 5V21.5H5.5V5Z" stroke="#3D424D"/>
<path d="M7.5 5C7.5 4.72386 7.72386 4.5 8 4.5H12C12.2761 4.5 12.5 4.72386 12.5 5V12.5H7.5V5Z" stroke="#3D424D"/>
<path d="M5.5 12.5H15.5C16.6046 12.5 17.5 13.3954 17.5 14.5V19C17.5 19.8284 18.1716 20.5 19 20.5V20.5C19.8284 20.5 20.5 19.8284 20.5 19V10.3284C20.5 9.79799 20.2893 9.28929 19.9142 8.91421L17.5 6.5" stroke="#3D424D"/>
</svg>
