<svg width="212" height="24" viewBox="0 0 212 24" fill="none" xmlns="http://www.w3.org/2000/svg">
<path d="M0 12L12 0V6H24L12 15V24L0 12Z" fill="#11141A"/>
<path d="M42 12L30 24V18H18L30 9V0L42 12Z" fill="#11141A"/>
<path d="M65.3229 22.5364V1.5354H70.3988V10.4157H70.6757L77.6179 1.5354H83.5962L76.1515 10.9079L83.7295 22.5364H77.6589L72.4292 14.2816L70.3988 16.8452V22.5364H65.3229Z" fill="#11141A"/>
<path d="M47.3287 22.5364V19.6446L57.5318 5.65766H47.3389V1.5354H63.951V4.42714L53.7479 18.4141H63.9408V22.5364H47.3287Z" fill="#11141A"/>
<path d="M144.651 12.6922V22.5364H142.825V6.78565H144.599V9.25696H144.764C145.133 8.45028 145.707 7.80426 146.486 7.31888C147.272 6.82667 148.243 6.58057 149.399 6.58057C150.458 6.58057 151.388 6.80274 152.188 7.2471C152.994 7.68462 153.62 8.33065 154.064 9.18518C154.515 10.0397 154.741 11.0891 154.741 12.3333V22.5364H152.916V12.4461C152.916 11.154 152.553 10.132 151.829 9.38001C151.111 8.62802 150.147 8.25203 148.937 8.25203C148.11 8.25203 147.375 8.42977 146.732 8.78526C146.09 9.14074 145.58 9.65346 145.204 10.3234C144.835 10.9865 144.651 11.7761 144.651 12.6922Z" fill="#11141A"/>
<path d="M138.184 22.5364V6.78565H140.02V22.5364H138.184ZM139.117 4.07849C138.741 4.07849 138.42 3.95202 138.153 3.69908C137.887 3.4393 137.753 3.12825 137.753 2.76593C137.753 2.40361 137.887 2.09598 138.153 1.84304C138.42 1.58326 138.741 1.45337 139.117 1.45337C139.493 1.45337 139.814 1.58326 140.081 1.84304C140.348 2.09598 140.481 2.40361 140.481 2.76593C140.481 3.12825 140.348 3.4393 140.081 3.69908C139.814 3.95202 139.493 4.07849 139.117 4.07849Z" fill="#11141A"/>
<path d="M128.51 22.8953C127.56 22.8953 126.692 22.7107 125.906 22.3415C125.119 21.9656 124.494 21.4255 124.029 20.7214C123.564 20.0104 123.332 19.149 123.332 18.1373C123.332 17.3579 123.479 16.7016 123.773 16.1684C124.067 15.6352 124.484 15.1977 125.024 14.8559C125.564 14.514 126.203 14.244 126.941 14.0458C127.68 13.8475 128.493 13.6937 129.382 13.5843C130.264 13.4749 131.009 13.3792 131.617 13.2972C132.233 13.2152 132.701 13.0853 133.022 12.9075C133.343 12.7298 133.504 12.4427 133.504 12.0462V11.677C133.504 10.6037 133.183 9.75943 132.54 9.14416C131.904 8.52206 130.988 8.21101 129.792 8.21101C128.657 8.21101 127.731 8.46054 127.013 8.95958C126.302 9.45863 125.803 10.0465 125.516 10.7233L123.783 10.0978C124.138 9.23645 124.631 8.54941 125.26 8.03669C125.889 7.51713 126.593 7.14456 127.372 6.91896C128.151 6.68653 128.941 6.57031 129.741 6.57031C130.342 6.57031 130.968 6.64893 131.617 6.80616C132.274 6.9634 132.882 7.23685 133.443 7.62651C134.003 8.00934 134.458 8.54599 134.806 9.23645C135.155 9.92008 135.329 10.7883 135.329 11.8411V22.5364H133.504V20.0446H133.391C133.173 20.5094 132.848 20.9606 132.417 21.3981C131.986 21.8357 131.446 22.1946 130.797 22.4749C130.148 22.7551 129.385 22.8953 128.51 22.8953ZM128.756 21.2238C129.727 21.2238 130.568 21.0085 131.279 20.5778C131.99 20.1471 132.537 19.5763 132.92 18.8653C133.309 18.1475 133.504 17.3579 133.504 16.4966V14.2201C133.367 14.35 133.138 14.4662 132.817 14.5687C132.503 14.6713 132.137 14.7636 131.72 14.8456C131.31 14.9208 130.9 14.9857 130.489 15.0404C130.079 15.0951 129.71 15.143 129.382 15.184C128.493 15.2934 127.734 15.4643 127.105 15.6967C126.476 15.9291 125.995 16.2504 125.66 16.6606C125.325 17.064 125.157 17.5835 125.157 18.2193C125.157 19.1764 125.499 19.9181 126.183 20.4445C126.866 20.964 127.724 21.2238 128.756 21.2238Z" fill="#11141A"/>
<path d="M111.123 12.6922V22.5364H109.297V1.5354H111.123V9.25695H111.287C111.656 8.44344 112.227 7.79399 112.999 7.30862C113.779 6.82324 114.763 6.58056 115.952 6.58056C117.019 6.58056 117.955 6.79932 118.762 7.23684C119.569 7.67436 120.198 8.32038 120.649 9.17491C121.1 10.0294 121.326 11.0822 121.326 12.3333V22.5364H119.49V12.4461C119.49 11.1472 119.128 10.1252 118.403 9.38C117.685 8.62801 116.715 8.25202 115.491 8.25202C114.65 8.25202 113.902 8.42976 113.245 8.78525C112.589 9.14073 112.069 9.65345 111.687 10.3234C111.311 10.9865 111.123 11.7761 111.123 12.6922Z" fill="#11141A"/>
<path d="M107.194 8.09822H105.266C105.122 7.38041 104.863 6.71729 104.487 6.10887C104.118 5.4936 103.653 4.95696 103.092 4.49893C102.532 4.0409 101.896 3.68542 101.185 3.43247C100.474 3.17953 99.7047 3.05306 98.8776 3.05306C97.5513 3.05306 96.3413 3.39829 95.2475 4.08875C94.1605 4.77922 93.2889 5.7944 92.6326 7.13431C91.9832 8.46737 91.6585 10.1012 91.6585 12.0359C91.6585 13.9842 91.9832 15.6249 92.6326 16.958C93.2889 18.2911 94.1605 19.3028 95.2475 19.9933C96.3413 20.6769 97.5513 21.0187 98.8776 21.0187C99.7047 21.0187 100.474 20.8923 101.185 20.6393C101.896 20.3864 102.532 20.0343 103.092 19.5831C103.653 19.1251 104.118 18.5884 104.487 17.9732C104.863 17.3579 105.122 16.6914 105.266 15.9736H107.194C107.023 16.9375 106.702 17.8365 106.23 18.6705C105.765 19.4977 105.17 20.2223 104.446 20.8444C103.728 21.4665 102.901 21.9519 101.964 22.3005C101.028 22.6492 99.9987 22.8235 98.8776 22.8235C97.1138 22.8235 95.5483 22.3826 94.181 21.5007C92.8138 20.612 91.7405 19.3609 90.9612 17.7476C90.1887 16.1342 89.8024 14.2303 89.8024 12.0359C89.8024 9.84146 90.1887 7.93757 90.9612 6.32421C91.7405 4.71085 92.8138 3.46324 94.181 2.58136C95.5483 1.69265 97.1138 1.24829 98.8776 1.24829C99.9987 1.24829 101.028 1.42262 101.964 1.77126C102.901 2.11308 103.728 2.59845 104.446 3.22739C105.17 3.84949 105.765 4.57413 106.23 5.40132C106.702 6.2285 107.023 7.12747 107.194 8.09822Z" fill="#11141A"/>
<path d="M197.77 22.5364V1.5354H199.606V9.79018H199.77C199.975 9.31848 200.269 8.8331 200.652 8.33405C201.041 7.83501 201.551 7.418 202.18 7.08302C202.815 6.74121 203.615 6.5703 204.579 6.5703C205.871 6.5703 207.006 6.91211 207.984 7.59574C208.961 8.27253 209.723 9.22277 210.27 10.4465C210.817 11.6633 211.091 13.0818 211.091 14.702C211.091 16.3291 210.817 17.7544 210.27 18.9781C209.73 20.2018 208.971 21.1555 207.994 21.8391C207.023 22.5227 205.895 22.8645 204.61 22.8645C203.653 22.8645 202.853 22.6936 202.21 22.3518C201.575 22.01 201.062 21.5896 200.672 21.0905C200.283 20.5846 199.982 20.0924 199.77 19.6139H199.544V22.5364H197.77ZM199.575 14.6713C199.575 15.9428 199.763 17.0708 200.139 18.0552C200.522 19.0328 201.069 19.8019 201.78 20.3624C202.497 20.9162 203.366 21.1931 204.384 21.1931C205.43 21.1931 206.316 20.9059 207.04 20.3317C207.765 19.7506 208.315 18.9678 208.691 17.9834C209.067 16.999 209.255 15.895 209.255 14.6713C209.255 13.4612 209.067 12.3709 208.691 11.4001C208.322 10.4294 207.775 9.66029 207.05 9.09288C206.326 8.51863 205.437 8.23151 204.384 8.23151C203.359 8.23151 202.487 8.50838 201.769 9.06212C201.058 9.60902 200.515 10.3678 200.139 11.3386C199.763 12.3025 199.575 13.4134 199.575 14.6713Z" fill="#11141A"/>
<path d="M192.755 16.5171V6.78564H194.58V22.5364H192.755V19.9215H192.611C192.242 20.7282 191.657 21.4016 190.857 21.9416C190.058 22.4748 189.08 22.7415 187.925 22.7415C186.92 22.7415 186.028 22.5227 185.248 22.0852C184.469 21.6408 183.857 20.9914 183.413 20.1368C182.968 19.2823 182.746 18.233 182.746 16.9888V6.78564H184.572V16.876C184.572 18.1065 184.934 19.0977 185.659 19.8497C186.383 20.5949 187.313 20.9675 188.448 20.9675C189.159 20.9675 189.842 20.7965 190.499 20.4547C191.155 20.1129 191.695 19.6139 192.119 18.9576C192.543 18.2945 192.755 17.481 192.755 16.5171Z" fill="#11141A"/>
<path d="M163.828 22.5364V1.5354H165.746V11.1643H177.661V1.5354H179.579V22.5364H177.661V12.887H165.746V22.5364H163.828Z" fill="#11141A"/>
</svg>
