<svg width="24" height="24" viewBox="0 0 24 24" fill="none" xmlns="http://www.w3.org/2000/svg">
<path d="M9.90989 2.9005L9.41238 2.85074V2.85075L9.90989 2.9005ZM9.65987 5.40072L9.82698 5.87197L10.1258 5.76599L10.1574 5.45047L9.65987 5.40072ZM7.45663 6.67462L7.25095 7.13036L7.5401 7.26085L7.78133 7.05485L7.45663 6.67462ZM5.16453 5.64021L5.3702 5.18447H5.3702L5.16453 5.64021ZM3.88716 6.05169L4.32017 6.30169L3.88716 6.05169ZM2.79215 7.94831L3.22516 8.19831H3.22516L2.79215 7.94831ZM3.07448 9.26028L2.78263 9.66627H2.78263L3.07448 9.26028ZM5.1154 10.7274L5.60717 10.8177L5.66438 10.5063L5.40724 10.3214L5.1154 10.7274ZM5.11539 13.2725L5.40723 13.6785L5.66437 13.4937L5.60716 13.1822L5.11539 13.2725ZM3.07448 14.7397L2.78263 14.3337H2.78263L3.07448 14.7397ZM2.79215 16.0516L3.22516 15.8016H3.22516L2.79215 16.0516ZM3.88716 17.9483L4.32017 17.6983H4.32017L3.88716 17.9483ZM5.16453 18.3597L4.95886 17.904L4.95886 17.904L5.16453 18.3597ZM7.45659 17.3253L7.78129 16.9451L7.54006 16.7391L7.25091 16.8696L7.45659 17.3253ZM9.65987 18.5993L10.1574 18.5495L10.1258 18.234L9.82698 18.128L9.65987 18.5993ZM9.90989 21.0995L9.41238 21.1493L9.90989 21.0995ZM14.09 21.0995L13.5925 21.0498L14.09 21.0995ZM14.34 18.5993L14.1729 18.1281L13.874 18.234L13.8425 18.5496L14.34 18.5993ZM16.5433 17.3254L16.749 16.8697L16.4598 16.7392L16.2186 16.9452L16.5433 17.3254ZM18.8353 18.3598L18.6296 18.8155H18.6296L18.8353 18.3598ZM20.1127 17.9483L20.5457 18.1983L20.1127 17.9483ZM21.2077 16.0517L20.7747 15.8017L21.2077 16.0517ZM20.9253 14.7397L20.6335 15.1457L20.9253 14.7397ZM18.8846 13.2727L18.3928 13.1824L18.3356 13.4939L18.5927 13.6787L18.8846 13.2727ZM18.8846 10.7272L18.5927 10.3212L18.3356 10.5061L18.3928 10.8176L18.8846 10.7272ZM20.9253 9.26023L20.6335 8.85424L20.9253 9.26023ZM21.2077 7.94826L20.7747 8.19825V8.19826L21.2077 7.94826ZM20.1127 6.05164L20.5457 5.80164V5.80164L20.1127 6.05164ZM18.8353 5.64016L19.041 6.0959L18.8353 5.64016ZM16.5433 6.67453L16.2186 7.05476L16.4598 7.26076L16.7489 7.13027L16.5433 6.67453ZM14.34 5.40068L13.8425 5.45043L13.874 5.76595L14.1729 5.87193L14.34 5.40068ZM14.09 2.9005L14.5875 2.85074V2.85074L14.09 2.9005ZM10.4074 2.95025C10.433 2.69465 10.6481 2.5 10.9049 2.5V1.5C10.1343 1.5 9.48906 2.08394 9.41238 2.85074L10.4074 2.95025ZM10.1574 5.45047L10.4074 2.95025L9.41238 2.85075L9.16235 5.35097L10.1574 5.45047ZM7.78133 7.05485C8.37963 6.54392 9.07137 6.13992 9.82698 5.87197L9.49276 4.92947C8.61983 5.23903 7.82163 5.70541 7.13193 6.2944L7.78133 7.05485ZM4.95886 6.09595L7.25095 7.13036L7.6623 6.21888L5.3702 5.18447L4.95886 6.09595ZM4.32017 6.30169C4.44861 6.07923 4.72472 5.99029 4.95886 6.09595L5.3702 5.18447C4.66779 4.86748 3.83946 5.13431 3.45414 5.80169L4.32017 6.30169ZM3.22516 8.19831L4.32017 6.30169L3.45414 5.80169L2.35913 7.69831L3.22516 8.19831ZM3.36633 8.8543C3.15775 8.70436 3.09672 8.42077 3.22516 8.19831L2.35913 7.69831C1.97382 8.36569 2.1569 9.21646 2.78263 9.66627L3.36633 8.8543ZM5.40724 10.3214L3.36633 8.8543L2.78263 9.66627L4.82355 11.1334L5.40724 10.3214ZM5.5 12C5.5 11.5959 5.53682 11.2007 5.60717 10.8177L4.62362 10.6371C4.54238 11.0794 4.5 11.535 4.5 12H5.5ZM5.60716 13.1822C5.53682 12.7992 5.5 12.4041 5.5 12H4.5C4.5 12.465 4.54238 12.9206 4.62361 13.3629L5.60716 13.1822ZM3.36632 15.1456L5.40723 13.6785L4.82354 12.8666L2.78263 14.3337L3.36632 15.1456ZM3.22516 15.8016C3.09672 15.5792 3.15775 15.2956 3.36632 15.1456L2.78263 14.3337C2.1569 14.7835 1.97382 15.6343 2.35913 16.3016L3.22516 15.8016ZM4.32017 17.6983L3.22516 15.8016L2.35913 16.3016L3.45414 18.1983L4.32017 17.6983ZM4.95886 17.904C4.72472 18.0097 4.44861 17.9207 4.32017 17.6983L3.45414 18.1983C3.83946 18.8656 4.66779 19.1325 5.3702 18.8155L4.95886 17.904ZM7.25091 16.8696L4.95886 17.904L5.3702 18.8155L7.66226 17.7811L7.25091 16.8696ZM9.82698 18.128C9.07135 17.8601 8.3796 17.4561 7.78129 16.9451L7.13188 17.7056C7.8216 18.2946 8.61981 18.761 9.49276 19.0705L9.82698 18.128ZM10.4074 21.0498L10.1574 18.5495L9.16235 18.649L9.41238 21.1493L10.4074 21.0498ZM10.9049 21.5C10.6481 21.5 10.433 21.3054 10.4074 21.0498L9.41238 21.1493C9.48906 21.9161 10.1343 22.5 10.9049 22.5V21.5ZM13.095 21.5H10.9049V22.5H13.095V21.5ZM13.5925 21.0498C13.5669 21.3054 13.3518 21.5 13.095 21.5V22.5C13.8656 22.5 14.5108 21.9161 14.5875 21.1493L13.5925 21.0498ZM13.8425 18.5496L13.5925 21.0498L14.5875 21.1493L14.8375 18.6491L13.8425 18.5496ZM16.2186 16.9452C15.6203 17.4561 14.9285 17.8601 14.1729 18.1281L14.5071 19.0706C15.3801 18.761 16.1783 18.2946 16.868 17.7057L16.2186 16.9452ZM19.041 17.904L16.749 16.8697L16.3376 17.7812L18.6296 18.8155L19.041 17.904ZM19.6796 17.6983C19.5512 17.9208 19.2751 18.0097 19.041 17.904L18.6296 18.8155C19.332 19.1325 20.1604 18.8657 20.5457 18.1983L19.6796 17.6983ZM20.7747 15.8017L19.6796 17.6983L20.5457 18.1983L21.6407 16.3017L20.7747 15.8017ZM20.6335 15.1457C20.8421 15.2956 20.9031 15.5792 20.7747 15.8017L21.6407 16.3017C22.026 15.6343 21.8429 14.7835 21.2172 14.3337L20.6335 15.1457ZM18.5927 13.6787L20.6335 15.1457L21.2172 14.3337L19.1764 12.8667L18.5927 13.6787ZM18.5 12C18.5 12.4042 18.4632 12.7993 18.3928 13.1824L19.3764 13.363C19.4576 12.9207 19.5 12.4651 19.5 12H18.5ZM18.3928 10.8176C18.4632 11.2006 18.5 11.5958 18.5 12H19.5C19.5 11.5349 19.4576 11.0793 19.3763 10.6369L18.3928 10.8176ZM20.6335 8.85424L18.5927 10.3212L19.1764 11.1332L21.2172 9.66622L20.6335 8.85424ZM20.7747 8.19826C20.9031 8.42072 20.8421 8.70431 20.6335 8.85424L21.2172 9.66622C21.8429 9.21641 22.026 8.36564 21.6407 7.69825L20.7747 8.19826ZM19.6796 6.30164L20.7747 8.19825L21.6407 7.69826L20.5457 5.80164L19.6796 6.30164ZM19.041 6.0959C19.2751 5.99023 19.5512 6.07918 19.6796 6.30164L20.5457 5.80164C20.1604 5.13425 19.332 4.86742 18.6296 5.18442L19.041 6.0959ZM16.7489 7.13027L19.041 6.0959L18.6296 5.18442L16.3376 6.21879L16.7489 7.13027ZM14.1729 5.87193C14.9285 6.13987 15.6203 6.54385 16.2186 7.05476L16.868 6.2943C16.1782 5.70533 15.38 5.23897 14.5071 4.92943L14.1729 5.87193ZM13.5925 2.95025L13.8425 5.45043L14.8375 5.35093L14.5875 2.85074L13.5925 2.95025ZM13.095 2.5C13.3518 2.5 13.5669 2.69465 13.5925 2.95025L14.5875 2.85074C14.5108 2.08394 13.8656 1.5 13.095 1.5V2.5ZM10.9049 2.5H13.095V1.5H10.9049V2.5Z" fill="white"/>
<circle cx="12" cy="12" r="2.5" stroke="white" stroke-linejoin="round"/>
</svg>
