<svg width="44" height="44" viewBox="0 0 44 44" fill="none" xmlns="http://www.w3.org/2000/svg">
<rect width="44" height="44" rx="22" fill="#262B33"/>
<path d="M19.9099 12.9005L19.4124 12.8507V12.8507L19.9099 12.9005ZM19.6599 15.4007L19.827 15.872L20.1258 15.766L20.1574 15.4505L19.6599 15.4007ZM17.4566 16.6746L17.251 17.1304L17.5401 17.2609L17.7813 17.0548L17.4566 16.6746ZM15.1645 15.6402L15.3702 15.1845H15.3702L15.1645 15.6402ZM13.8872 16.0517L14.3202 16.3017L13.8872 16.0517ZM12.7921 17.9483L13.2252 18.1983H13.2252L12.7921 17.9483ZM13.0745 19.2603L12.7826 19.6663H12.7826L13.0745 19.2603ZM15.1154 20.7274L15.6072 20.8177L15.6644 20.5063L15.4072 20.3214L15.1154 20.7274ZM15.1154 23.2725L15.4072 23.6785L15.6644 23.4937L15.6072 23.1822L15.1154 23.2725ZM13.0745 24.7397L12.7826 24.3337H12.7826L13.0745 24.7397ZM12.7921 26.0516L13.2252 25.8016H13.2252L12.7921 26.0516ZM13.8872 27.9483L14.3202 27.6983H14.3202L13.8872 27.9483ZM15.1645 28.3597L14.9589 27.904L14.9589 27.904L15.1645 28.3597ZM17.4566 27.3253L17.7813 26.9451L17.5401 26.7391L17.2509 26.8696L17.4566 27.3253ZM19.6599 28.5993L20.1574 28.5495L20.1258 28.234L19.827 28.128L19.6599 28.5993ZM19.9099 31.0995L19.4124 31.1493L19.9099 31.0995ZM24.09 31.0995L23.5925 31.0498L24.09 31.0995ZM24.34 28.5993L24.1729 28.1281L23.874 28.234L23.8425 28.5496L24.34 28.5993ZM26.5433 27.3254L26.749 26.8697L26.4598 26.7392L26.2186 26.9452L26.5433 27.3254ZM28.8353 28.3598L28.6296 28.8155H28.6296L28.8353 28.3598ZM30.1127 27.9483L30.5457 28.1983L30.1127 27.9483ZM31.2077 26.0517L30.7747 25.8017L31.2077 26.0517ZM30.9253 24.7397L30.6335 25.1457L30.9253 24.7397ZM28.8846 23.2727L28.3928 23.1824L28.3356 23.4939L28.5927 23.6787L28.8846 23.2727ZM28.8846 20.7272L28.5927 20.3212L28.3356 20.5061L28.3928 20.8176L28.8846 20.7272ZM30.9253 19.2602L30.6335 18.8542L30.9253 19.2602ZM31.2077 17.9483L30.7747 18.1983V18.1983L31.2077 17.9483ZM30.1127 16.0516L30.5457 15.8016V15.8016L30.1127 16.0516ZM28.8353 15.6402L29.041 16.0959L28.8353 15.6402ZM26.5433 16.6745L26.2186 17.0548L26.4598 17.2608L26.7489 17.1303L26.5433 16.6745ZM24.34 15.4007L23.8425 15.4504L23.874 15.766L24.1729 15.8719L24.34 15.4007ZM24.09 12.9005L24.5875 12.8507V12.8507L24.09 12.9005ZM20.4074 12.9502C20.433 12.6946 20.6481 12.5 20.9049 12.5V11.5C20.1343 11.5 19.4891 12.0839 19.4124 12.8507L20.4074 12.9502ZM20.1574 15.4505L20.4074 12.9502L19.4124 12.8507L19.1624 15.351L20.1574 15.4505ZM17.7813 17.0548C18.3796 16.5439 19.0714 16.1399 19.827 15.872L19.4928 14.9295C18.6198 15.239 17.8216 15.7054 17.1319 16.2944L17.7813 17.0548ZM14.9589 16.096L17.251 17.1304L17.6623 16.2189L15.3702 15.1845L14.9589 16.096ZM14.3202 16.3017C14.4486 16.0792 14.7247 15.9903 14.9589 16.096L15.3702 15.1845C14.6678 14.8675 13.8395 15.1343 13.4541 15.8017L14.3202 16.3017ZM13.2252 18.1983L14.3202 16.3017L13.4541 15.8017L12.3591 17.6983L13.2252 18.1983ZM13.3663 18.8543C13.1577 18.7044 13.0967 18.4208 13.2252 18.1983L12.3591 17.6983C11.9738 18.3657 12.1569 19.2165 12.7826 19.6663L13.3663 18.8543ZM15.4072 20.3214L13.3663 18.8543L12.7826 19.6663L14.8236 21.1334L15.4072 20.3214ZM15.5 22C15.5 21.5959 15.5368 21.2007 15.6072 20.8177L14.6236 20.6371C14.5424 21.0794 14.5 21.535 14.5 22H15.5ZM15.6072 23.1822C15.5368 22.7992 15.5 22.4041 15.5 22H14.5C14.5 22.465 14.5424 22.9206 14.6236 23.3629L15.6072 23.1822ZM13.3663 25.1456L15.4072 23.6785L14.8235 22.8666L12.7826 24.3337L13.3663 25.1456ZM13.2252 25.8016C13.0967 25.5792 13.1577 25.2956 13.3663 25.1456L12.7826 24.3337C12.1569 24.7835 11.9738 25.6343 12.3591 26.3016L13.2252 25.8016ZM14.3202 27.6983L13.2252 25.8016L12.3591 26.3016L13.4541 28.1983L14.3202 27.6983ZM14.9589 27.904C14.7247 28.0097 14.4486 27.9207 14.3202 27.6983L13.4541 28.1983C13.8395 28.8656 14.6678 29.1325 15.3702 28.8155L14.9589 27.904ZM17.2509 26.8696L14.9589 27.904L15.3702 28.8155L17.6623 27.7811L17.2509 26.8696ZM19.827 28.128C19.0714 27.8601 18.3796 27.4561 17.7813 26.9451L17.1319 27.7056C17.8216 28.2946 18.6198 28.761 19.4928 29.0705L19.827 28.128ZM20.4074 31.0498L20.1574 28.5495L19.1624 28.649L19.4124 31.1493L20.4074 31.0498ZM20.9049 31.5C20.6481 31.5 20.433 31.3054 20.4074 31.0498L19.4124 31.1493C19.4891 31.9161 20.1343 32.5 20.9049 32.5V31.5ZM23.095 31.5H20.9049V32.5H23.095V31.5ZM23.5925 31.0498C23.5669 31.3054 23.3518 31.5 23.095 31.5V32.5C23.8656 32.5 24.5108 31.9161 24.5875 31.1493L23.5925 31.0498ZM23.8425 28.5496L23.5925 31.0498L24.5875 31.1493L24.8375 28.6491L23.8425 28.5496ZM26.2186 26.9452C25.6203 27.4561 24.9285 27.8601 24.1729 28.1281L24.5071 29.0706C25.3801 28.761 26.1783 28.2946 26.868 27.7057L26.2186 26.9452ZM29.041 27.904L26.749 26.8697L26.3376 27.7812L28.6296 28.8155L29.041 27.904ZM29.6796 27.6983C29.5512 27.9208 29.2751 28.0097 29.041 27.904L28.6296 28.8155C29.332 29.1325 30.1604 28.8657 30.5457 28.1983L29.6796 27.6983ZM30.7747 25.8017L29.6796 27.6983L30.5457 28.1983L31.6407 26.3017L30.7747 25.8017ZM30.6335 25.1457C30.8421 25.2956 30.9031 25.5792 30.7747 25.8017L31.6407 26.3017C32.026 25.6343 31.8429 24.7835 31.2172 24.3337L30.6335 25.1457ZM28.5927 23.6787L30.6335 25.1457L31.2172 24.3337L29.1764 22.8667L28.5927 23.6787ZM28.5 22C28.5 22.4042 28.4632 22.7993 28.3928 23.1824L29.3764 23.363C29.4576 22.9207 29.5 22.4651 29.5 22H28.5ZM28.3928 20.8176C28.4632 21.2006 28.5 21.5958 28.5 22H29.5C29.5 21.5349 29.4576 21.0793 29.3763 20.6369L28.3928 20.8176ZM30.6335 18.8542L28.5927 20.3212L29.1764 21.1332L31.2172 19.6662L30.6335 18.8542ZM30.7747 18.1983C30.9031 18.4207 30.8421 18.7043 30.6335 18.8542L31.2172 19.6662C31.8429 19.2164 32.026 18.3656 31.6407 17.6983L30.7747 18.1983ZM29.6796 16.3016L30.7747 18.1983L31.6407 17.6983L30.5457 15.8016L29.6796 16.3016ZM29.041 16.0959C29.2751 15.9902 29.5512 16.0792 29.6796 16.3016L30.5457 15.8016C30.1604 15.1343 29.332 14.8674 28.6296 15.1844L29.041 16.0959ZM26.7489 17.1303L29.041 16.0959L28.6296 15.1844L26.3376 16.2188L26.7489 17.1303ZM24.1729 15.8719C24.9285 16.1399 25.6203 16.5438 26.2186 17.0548L26.868 16.2943C26.1782 15.7053 25.38 15.239 24.5071 14.9294L24.1729 15.8719ZM23.5925 12.9502L23.8425 15.4504L24.8375 15.3509L24.5875 12.8507L23.5925 12.9502ZM23.095 12.5C23.3518 12.5 23.5669 12.6946 23.5925 12.9502L24.5875 12.8507C24.5108 12.0839 23.8656 11.5 23.095 11.5V12.5ZM20.9049 12.5H23.095V11.5H20.9049V12.5Z" fill="white"/>
<circle cx="22" cy="22" r="2.5" stroke="white" stroke-linejoin="round"/>
</svg>
