<svg width="21" height="20" viewBox="0 0 21 20" fill="none" xmlns="http://www.w3.org/2000/svg">
<path d="M9.71479 12.6602C9.97326 12.9188 10.305 13.0366 10.71 13.0135C11.1149 12.9906 11.4103 12.8451 11.5963 12.5769L15.9744 6.47437L9.83979 10.8204C9.5609 11.0064 9.40569 11.2949 9.37417 11.6858C9.34264 12.0769 9.45618 12.4017 9.71479 12.6602ZM10.75 4.16666C11.516 4.16666 12.2133 4.25985 12.8421 4.44624C13.4708 4.63277 14.0972 4.91777 14.7213 5.30124L13.9552 5.82041C13.4648 5.55235 12.957 5.3486 12.4319 5.20916C11.9067 5.06971 11.3461 4.99999 10.75 4.99999C8.90278 4.99999 7.32986 5.6493 6.03125 6.94791C4.73264 8.24652 4.08333 9.81943 4.08333 11.6667C4.08333 12.25 4.16319 12.8264 4.32292 13.3958C4.48264 13.9653 4.70833 14.5 5 15H16.5C16.8194 14.4722 17.0521 13.9236 17.1979 13.3542C17.3438 12.7847 17.4167 12.1944 17.4167 11.5833C17.4167 11.0833 17.3523 10.5571 17.2235 10.0048C17.0948 9.45242 16.891 8.93798 16.6121 8.46145L17.1315 7.69541C17.5374 8.39096 17.8245 9.04541 17.9927 9.65874C18.161 10.2719 18.2468 10.9103 18.25 11.5737C18.2532 12.2905 18.1736 12.9594 18.0112 13.5802C17.8489 14.2009 17.5962 14.8269 17.2531 15.4583C17.1859 15.5694 17.0844 15.6597 16.9487 15.7292C16.8131 15.7986 16.6635 15.8333 16.5 15.8333H5C4.84722 15.8333 4.70569 15.796 4.57542 15.7212C4.445 15.6464 4.33549 15.5374 4.24688 15.3942C3.97118 14.908 3.73611 14.3597 3.54167 13.7492C3.34722 13.1386 3.25 12.4444 3.25 11.6667C3.25 10.6421 3.44431 9.67513 3.83292 8.76582C4.22153 7.85638 4.75194 7.05985 5.42417 6.37624C6.09653 5.69277 6.8916 5.1536 7.80938 4.75874C8.72701 4.36402 9.70722 4.16666 10.75 4.16666Z" fill="#A1A7B3"/>
</svg>
