<svg width="21" height="20" viewBox="0 0 21 20" fill="none" xmlns="http://www.w3.org/2000/svg">
<path d="M9.71479 12.6603C9.97326 12.9189 10.305 13.0367 10.71 13.0136C11.1149 12.9907 11.4103 12.8452 11.5963 12.577L15.9744 6.47446L9.83979 10.8205C9.5609 11.0065 9.40569 11.2949 9.37417 11.6859C9.34264 12.077 9.45618 12.4018 9.71479 12.6603ZM10.75 4.16675C11.516 4.16675 12.2133 4.25994 12.8421 4.44633C13.4708 4.63286 14.0972 4.91786 14.7213 5.30133L13.9552 5.8205C13.4648 5.55244 12.957 5.34869 12.4319 5.20925C11.9067 5.0698 11.3461 5.00008 10.75 5.00008C8.90278 5.00008 7.32986 5.64939 6.03125 6.948C4.73264 8.24661 4.08333 9.81953 4.08333 11.6667C4.08333 12.2501 4.16319 12.8265 4.32292 13.3959C4.48264 13.9654 4.70833 14.5001 5 15.0001H16.5C16.8194 14.4723 17.0521 13.9237 17.1979 13.3542C17.3438 12.7848 17.4167 12.1945 17.4167 11.5834C17.4167 11.0834 17.3523 10.5572 17.2235 10.0049C17.0948 9.45251 16.891 8.93807 16.6121 8.46154L17.1315 7.6955C17.5374 8.39105 17.8245 9.0455 17.9927 9.65883C18.161 10.272 18.2468 10.9104 18.25 11.5738C18.2532 12.2906 18.1736 12.9595 18.0112 13.5803C17.8489 14.201 17.5962 14.827 17.2531 15.4584C17.1859 15.5695 17.0844 15.6598 16.9487 15.7292C16.8131 15.7987 16.6635 15.8334 16.5 15.8334H5C4.84722 15.8334 4.70569 15.7961 4.57542 15.7213C4.445 15.6465 4.33549 15.5374 4.24688 15.3942C3.97118 14.9081 3.73611 14.3598 3.54167 13.7492C3.34722 13.1387 3.25 12.4445 3.25 11.6667C3.25 10.6422 3.44431 9.67522 3.83292 8.76591C4.22153 7.85647 4.75194 7.05994 5.42417 6.37633C6.09653 5.69286 6.8916 5.15369 7.80938 4.75883C8.72701 4.36411 9.70722 4.16675 10.75 4.16675Z" fill="#3D424D"/>
</svg>
