<svg width="20" height="20" viewBox="0 0 20 20" fill="none" xmlns="http://www.w3.org/2000/svg">
<path d="M17.194 11.6475L11.6684 17.194C11.5309 17.3306 11.3813 17.4297 11.2198 17.4913C11.0583 17.5527 10.8904 17.5834 10.7161 17.5834C10.5416 17.5834 10.3741 17.5527 10.2136 17.4913C10.053 17.4297 9.9044 17.3306 9.76773 17.194L2.80794 10.2421C2.67002 10.1096 2.5703 9.96245 2.50877 9.80065C2.44738 9.63884 2.41669 9.46863 2.41669 9.29002V3.7644C2.41669 3.39384 2.54752 3.07655 2.80919 2.81252C3.07099 2.54863 3.3894 2.41669 3.7644 2.41669H9.29002C9.46224 2.41669 9.62912 2.4471 9.79065 2.50794C9.95217 2.56863 10.1002 2.66592 10.2348 2.79981L17.194 9.75169C17.3327 9.88919 17.4336 10.0352 17.4967 10.1896C17.5597 10.3442 17.5913 10.5097 17.5913 10.6861C17.5913 10.8625 17.5596 11.0328 17.4963 11.1971C17.4329 11.3614 17.3322 11.5115 17.194 11.6475ZM10.9023 16.4198L16.4279 10.8942C16.4813 10.8409 16.5079 10.7781 16.5079 10.7059C16.5079 10.6338 16.4813 10.5711 16.4279 10.5177L9.40231 3.50794H3.7644C3.68967 3.50794 3.6269 3.53203 3.57606 3.58023C3.52537 3.62828 3.50002 3.68967 3.50002 3.7644V9.29815C3.50002 9.33023 3.50537 9.36224 3.51606 9.39419C3.52676 9.42627 3.54544 9.45565 3.5721 9.48231L10.5256 16.4198C10.5791 16.4733 10.6419 16.5 10.714 16.5C10.7861 16.5 10.8488 16.4733 10.9023 16.4198ZM5.52085 6.56565C5.81141 6.56565 6.05822 6.4644 6.26127 6.2619C6.46419 6.0594 6.56565 5.81342 6.56565 5.52398C6.56565 5.23245 6.4644 4.98467 6.2619 4.78064C6.0594 4.57648 5.81342 4.4744 5.52398 4.4744C5.23245 4.4744 4.98467 4.57613 4.78065 4.7796C4.57648 4.98308 4.4744 5.23016 4.4744 5.52085C4.4744 5.81141 4.57613 6.05821 4.7796 6.26127C4.98308 6.46419 5.23016 6.56565 5.52085 6.56565Z" fill="#A1A7B3"/>
</svg>
