<svg width="20" height="20" viewBox="0 0 20 20" fill="none" xmlns="http://www.w3.org/2000/svg">
<path d="M17.194 11.6476L11.6684 17.194C11.5309 17.3307 11.3813 17.4298 11.2198 17.4913C11.0583 17.5527 10.8904 17.5834 10.7161 17.5834C10.5416 17.5834 10.3741 17.5527 10.2136 17.4913C10.053 17.4298 9.9044 17.3307 9.76773 17.194L2.80794 10.2422C2.67002 10.1097 2.5703 9.96251 2.50877 9.80071C2.44738 9.6389 2.41669 9.46869 2.41669 9.29008V3.76446C2.41669 3.3939 2.54752 3.07661 2.80919 2.81258C3.07099 2.54869 3.3894 2.41675 3.7644 2.41675H9.29002C9.46224 2.41675 9.62912 2.44716 9.79065 2.508C9.95217 2.56869 10.1002 2.66598 10.2348 2.79987L17.194 9.75175C17.3327 9.88925 17.4336 10.0352 17.4967 10.1897C17.5597 10.3442 17.5913 10.5097 17.5913 10.6861C17.5913 10.8625 17.5596 11.0329 17.4963 11.1972C17.4329 11.3615 17.3322 11.5116 17.194 11.6476ZM10.9023 16.4199L16.4279 10.8942C16.4813 10.8409 16.5079 10.7781 16.5079 10.7059C16.5079 10.6338 16.4813 10.5711 16.4279 10.5178L9.40231 3.508H3.7644C3.68967 3.508 3.6269 3.53209 3.57606 3.58029C3.52537 3.62834 3.50002 3.68973 3.50002 3.76446V9.29821C3.50002 9.33029 3.50537 9.3623 3.51606 9.39425C3.52676 9.42633 3.54544 9.45571 3.5721 9.48237L10.5256 16.4199C10.5791 16.4733 10.6419 16.5001 10.714 16.5001C10.7861 16.5001 10.8488 16.4733 10.9023 16.4199ZM5.52085 6.56571C5.81141 6.56571 6.05822 6.46446 6.26127 6.26196C6.46419 6.05946 6.56565 5.81348 6.56565 5.52404C6.56565 5.23251 6.4644 4.98473 6.2619 4.78071C6.0594 4.57654 5.81342 4.47446 5.52398 4.47446C5.23245 4.47446 4.98467 4.57619 4.78065 4.77966C4.57648 4.98314 4.4744 5.23022 4.4744 5.52091C4.4744 5.81147 4.57613 6.05828 4.7796 6.26133C4.98308 6.46425 5.23016 6.56571 5.52085 6.56571Z" fill="#3D424D"/>
</svg>
