<svg width="24" height="24" viewBox="0 0 24 24" fill="none" xmlns="http://www.w3.org/2000/svg">
<path d="M3.5 4C3.5 3.72386 3.72386 3.5 4 3.5H10C10.2761 3.5 10.5 3.72386 10.5 4V10C10.5 10.2761 10.2761 10.5 10 10.5H4C3.72386 10.5 3.5 10.2761 3.5 10V4Z" stroke="white"/>
<path d="M3.5 14C3.5 13.7239 3.72386 13.5 4 13.5H10C10.2761 13.5 10.5 13.7239 10.5 14V20C10.5 20.2761 10.2761 20.5 10 20.5H4C3.72386 20.5 3.5 20.2761 3.5 20V14Z" stroke="white"/>
<path d="M13.5 4C13.5 3.72386 13.7239 3.5 14 3.5H20C20.2761 3.5 20.5 3.72386 20.5 4V10C20.5 10.2761 20.2761 10.5 20 10.5H14C13.7239 10.5 13.5 10.2761 13.5 10V4Z" stroke="white"/>
<path d="M13.5 14C13.5 13.7239 13.7239 13.5 14 13.5H20C20.2761 13.5 20.5 13.7239 20.5 14V20C20.5 20.2761 20.2761 20.5 20 20.5H14C13.7239 20.5 13.5 20.2761 13.5 20V14Z" stroke="white"/>
</svg>
