<svg width="136" height="14" viewBox="0 0 136 14" fill="none" xmlns="http://www.w3.org/2000/svg">
<path d="M18.8652 0.246246C18.8652 0.246246 16.9417 5.71358 16.3434 7.39979C16.3434 7.39979 14.9912 11.178 14.8945 11.4821C14.7679 11.881 14.4718 12.7086 14.0529 12.7086C13.5075 12.7086 13.1854 11.7952 13.0638 11.4821C12.6649 10.449 12.4954 9.28344 12.3309 8.19149C12.1439 6.94479 12.0409 5.68682 12.0227 4.4263C12.0164 3.97416 12.09 3.52457 12.2401 3.09806L13.2372 0.244217H10.8192C10.8192 0.244217 8.89463 5.71163 8.29638 7.39776C8.29638 7.39776 6.94424 11.176 6.84752 11.4801C6.72186 11.879 6.42469 12.7066 6.00689 12.7066C5.4605 12.7066 5.13838 11.7932 5.01776 11.4801C4.6189 10.4471 4.44837 9.28141 4.28385 8.18954C3.89973 5.5562 3.87057 2.88326 4.19705 0.242188H0.718018C0.718018 0.242188 3.33155 8.5575 4.10836 10.484C4.49226 11.4402 5.46246 13.99 6.90035 13.99C8.33825 13.99 8.82985 12.7645 9.29356 11.4782C9.52985 10.827 10.2089 8.89653 10.9399 6.81545C11.5142 8.55352 12.0148 10.0651 12.1563 10.484C12.4864 11.4602 13.5115 13.99 14.9484 13.99C16.3853 13.99 16.8789 12.7645 17.3415 11.4782C17.9299 9.85275 21.2903 0.242188 21.2903 0.242188L18.8652 0.246246Z" fill="white"/>
<path d="M76.4918 0.740907V13.7337H74.2739V0.246302C75.4306 0.246302 80.2977 0.22135 81.2537 0.29816C82.351 0.385867 83.4475 0.571354 84.2705 1.37207C84.7011 1.79287 84.9822 2.35722 84.9567 2.96749C84.8627 5.2261 82.1007 5.82036 80.4157 6.4655C80.1429 6.57019 79.8378 6.70984 79.7521 6.98904C79.6664 7.26825 79.8295 7.54144 79.9858 7.77879C81.4581 10.0064 83.1627 12.1114 85.2708 13.7517H82.1037C82.1037 13.7517 81.3326 13.0297 81.0064 12.6619C79.9024 11.4418 78.9269 10.1113 78.0949 8.69119C77.9115 8.37207 77.7304 8.00711 77.8236 7.65117C77.9017 7.35197 78.1528 7.13958 78.4053 6.96612C79.6559 6.11054 81.531 5.84027 82.3322 4.42034C82.8515 3.49802 82.7396 2.2396 81.9707 1.48676C81.3386 0.867545 80.3669 0.746844 79.5221 0.731888C78.5458 0.713925 77.5628 0.74489 76.5902 0.74489L76.4918 0.740907Z" fill="white"/>
<path d="M47.5374 0.246212H44.205C46.5642 3.9766 47.1884 7.96516 47.0159 12.0834C46.5293 11.7842 45.3447 11.173 42.8767 6.99196C41.7988 5.16415 41.4448 4.54794 40.328 2.74411C39.6609 1.66817 38.8114 0.00195312 37.3286 0.00195312C36.6625 0.00195312 36.3314 0.249218 36.3314 0.249218V13.7506H39.663C37.3036 10.0203 36.6804 6.03168 36.8529 1.91348C37.542 1.91348 39.645 5.90204 40.2493 6.99895C40.9184 8.2025 44.2788 13.9999 46.5403 13.9999C46.5214 13.9999 46.5583 13.9999 46.5403 13.9999C47.2064 13.9999 47.5374 13.7527 47.5374 13.7527V0.246212Z" fill="white"/>
<path d="M27.9571 0.020874C24.0393 0.020874 20.8624 3.14197 20.8624 6.99201C20.8624 10.842 24.0393 13.9621 27.9571 13.9621C31.875 13.9621 35.0519 10.841 35.0519 6.99201C35.0519 3.14295 31.8769 0.020874 27.9571 0.020874ZM28.017 13.5004C25.6517 13.5004 23.7342 10.5887 23.7342 6.99697C23.7342 3.40525 25.6517 0.493533 28.017 0.493533C30.3822 0.493533 32.3047 3.40525 32.3047 6.99697C32.3047 10.5887 30.3812 13.5004 28.017 13.5004Z" fill="white"/>
<path d="M96.3579 13.7477V10.4222C94.1183 12.7406 91.5329 13.3668 89.0557 13.2232V0.251221H86.7627V13.7447L96.3579 13.7477Z" fill="white"/>
<path d="M53.0336 0.246338H49.4727V13.7478H53.0355C58.9187 13.7478 60.9609 10.7194 60.9609 6.99306C60.9609 3.26673 58.9158 0.246338 53.0336 0.246338ZM53.0993 13.2931C52.6482 13.2931 52.1995 13.2275 51.7672 13.0986V0.899448C52.1992 0.768901 52.6479 0.701711 53.0993 0.700058C57.2575 0.700058 58.484 3.51798 58.484 6.99502C58.484 10.4721 57.2575 13.2931 53.0993 13.2931Z" fill="white"/>
<path d="M105.753 8.96835C106.519 11.1382 107.436 13.7477 107.436 13.7477H109.954L105.904 2.51181C105.439 1.2255 104.942 0 103.511 0C102.08 0 101.052 2.52977 100.719 3.50597C100.337 4.63776 97.329 13.7477 97.329 13.7477H100.808C100.619 12.1621 100.552 10.5642 100.609 8.96835H105.753ZM100.902 5.80043C101.067 4.71051 101.234 3.54483 101.635 2.50985C101.756 2.19675 102.079 1.2833 102.625 1.2833C103.043 1.2833 103.34 2.11295 103.466 2.50985C103.565 2.81393 104.915 6.59213 104.915 6.59213C105.071 7.03187 105.314 7.72894 105.596 8.51966H100.631C100.676 7.6129 100.767 6.70651 100.902 5.80043Z" fill="white"/>
<path d="M72.1418 13.7478L72.1215 10.4222C69.8805 12.7407 67.3159 13.3669 64.842 13.2232V7.16457C66.3377 7.06484 67.8963 7.43378 69.2534 8.83778L69.2643 7.14961V6.85049L69.2534 5.1603C67.8963 6.56429 66.3407 6.93121 64.842 6.8335V0.76582C67.3079 0.616258 69.5794 1.05006 71.8224 3.36841L71.8427 0.246338L64.6565 0.251298H62.5455V13.7447H64.839V13.7388L72.1418 13.7478Z" fill="white"/>
<path d="M122.267 0.246212H118.936C121.293 3.9766 121.918 7.96516 121.745 12.0834C121.259 11.7842 120.074 11.173 117.607 6.99196C116.528 5.16415 116.175 4.54794 115.058 2.74411C114.391 1.66817 113.544 0.00195312 112.058 0.00195312C111.392 0.00195312 111.061 0.249218 111.061 0.249218V13.7506H114.392C112.033 10.0203 111.41 6.03168 111.583 1.91348C112.272 1.91348 114.375 5.90204 114.979 6.99895C115.648 8.2025 119.008 13.9999 121.27 13.9999C121.252 13.9999 121.287 13.9999 121.27 13.9999C121.936 13.9999 122.267 13.7527 122.267 13.7527V0.246212Z" fill="white"/>
<path d="M128.072 0.246338H124.512V13.7478H128.074C133.957 13.7478 136 10.7194 136 6.99306C136 3.26673 133.954 0.246338 128.072 0.246338ZM128.138 13.2931C127.687 13.2931 127.238 13.2275 126.806 13.0986V0.899448C127.238 0.768901 127.687 0.701711 128.138 0.700058C132.296 0.700058 133.523 3.51798 133.523 6.99502C133.523 10.4721 132.296 13.2931 128.138 13.2931Z" fill="white"/>
</svg>
