<svg width="256" height="256" viewBox="0 0 256 256" fill="none" xmlns="http://www.w3.org/2000/svg">
<g clip-path="url(#clip0_111_20860)">
<rect width="256" height="256" rx="64" fill="#11141A"/>
<g filter="url(#filter0_f_111_20860)">
<path fill-rule="evenodd" clip-rule="evenodd" d="M-228 -44C-228 -150.044 -142.044 -236 -36 -236C70.044 -236 156 -150.044 156 -44C156 62.044 70.044 148 -36 148C-142.044 148 -228 62.044 -228 -44Z" fill="#627EEA"/>
<path d="M-41.3545 19.6583V83.9464L38.6668 -26.763L-41.3545 19.6583Z" fill="white" fill-opacity="0.602"/>
<path d="M-41.3545 4.77812L38.6135 -41.6539L-41.3545 -77.3659V4.77812Z" fill="white" fill-opacity="0.2"/>
</g>
<path d="M45.0712 116V110.247L80.3553 57.5767H44.6877V50.5455H89.8155V56.2983L54.5314 108.969H90.199V116H45.0712ZM103.494 116V50.5455H111.421V83.017H112.188L141.591 50.5455H151.946L124.46 80.0767L151.946 116H142.358L119.602 85.5739L111.421 94.7784V116H103.494ZM211.8 71H203.874C203.405 68.7202 202.585 66.7173 201.413 64.9915C200.262 63.2656 198.856 61.8168 197.194 60.6449C195.553 59.4517 193.732 58.5568 191.729 57.9602C189.726 57.3636 187.638 57.0653 185.464 57.0653C181.501 57.0653 177.911 58.0668 174.694 60.0696C171.498 62.0724 168.952 65.0234 167.055 68.9226C165.18 72.8217 164.243 77.6051 164.243 83.2727C164.243 88.9403 165.18 93.7237 167.055 97.6229C168.952 101.522 171.498 104.473 174.694 106.476C177.911 108.479 181.501 109.48 185.464 109.48C187.638 109.48 189.726 109.182 191.729 108.585C193.732 107.989 195.553 107.104 197.194 105.933C198.856 104.739 200.262 103.28 201.413 101.554C202.585 99.8068 203.405 97.804 203.874 95.5455H211.8C211.203 98.8906 210.116 101.884 208.54 104.526C206.963 107.168 205.003 109.416 202.659 111.27C200.315 113.102 197.684 114.498 194.765 115.457C191.867 116.415 188.767 116.895 185.464 116.895C179.882 116.895 174.918 115.531 170.571 112.804C166.224 110.077 162.805 106.199 160.312 101.17C157.819 96.142 156.572 90.1761 156.572 83.2727C156.572 76.3693 157.819 70.4034 160.312 65.375C162.805 60.3466 166.224 56.4688 170.571 53.7415C174.918 51.0142 179.882 49.6506 185.464 49.6506C188.767 49.6506 191.867 50.13 194.765 51.0888C197.684 52.0476 200.315 53.4538 202.659 55.3075C205.003 57.1399 206.963 59.3771 208.54 62.0192C210.116 64.6399 211.203 67.6335 211.8 71ZM48.5189 206V140.545H56.445V169.693H91.3456V140.545H99.2718V206H91.3456V176.724H56.445V206H48.5189ZM145.055 185.929V156.909H152.597V206H145.055V197.69H144.543C143.393 200.183 141.603 202.303 139.174 204.05C136.745 205.776 133.677 206.639 129.97 206.639C126.901 206.639 124.174 205.968 121.788 204.626C119.401 203.262 117.526 201.217 116.163 198.489C114.799 195.741 114.117 192.278 114.117 188.102V156.909H121.66V187.591C121.66 191.17 122.661 194.026 124.664 196.156C126.688 198.287 129.266 199.352 132.399 199.352C134.274 199.352 136.18 198.873 138.119 197.914C140.08 196.955 141.72 195.485 143.041 193.504C144.384 191.522 145.055 188.997 145.055 185.929ZM167.435 206V140.545H174.978V164.707H175.617C176.171 163.855 176.938 162.768 177.918 161.447C178.919 160.105 180.347 158.912 182.201 157.868C184.076 156.803 186.611 156.27 189.807 156.27C193.941 156.27 197.584 157.303 200.737 159.37C203.891 161.437 206.352 164.366 208.12 168.159C209.889 171.952 210.773 176.426 210.773 181.582C210.773 186.781 209.889 191.288 208.12 195.102C206.352 198.894 203.902 201.835 200.769 203.923C197.637 205.989 194.026 207.023 189.935 207.023C186.782 207.023 184.257 206.501 182.36 205.457C180.464 204.391 179.005 203.187 177.982 201.845C176.959 200.482 176.171 199.352 175.617 198.457H174.722V206H167.435ZM174.85 181.455C174.85 185.162 175.393 188.433 176.48 191.266C177.566 194.079 179.154 196.284 181.242 197.882C183.33 199.459 185.887 200.247 188.912 200.247C192.066 200.247 194.697 199.416 196.806 197.754C198.937 196.071 200.535 193.812 201.6 190.979C202.687 188.124 203.23 184.949 203.23 181.455C203.23 178.003 202.698 174.892 201.632 172.122C200.588 169.331 199.001 167.126 196.87 165.506C194.761 163.866 192.108 163.045 188.912 163.045C185.844 163.045 183.266 163.823 181.178 165.379C179.09 166.913 177.513 169.065 176.448 171.835C175.382 174.583 174.85 177.79 174.85 181.455Z" fill="white"/>
</g>
<defs>
<filter id="filter0_f_111_20860" x="-628" y="-636" width="1184" height="1184" filterUnits="userSpaceOnUse" color-interpolation-filters="sRGB">
<feFlood flood-opacity="0" result="BackgroundImageFix"/>
<feBlend mode="normal" in="SourceGraphic" in2="BackgroundImageFix" result="shape"/>
<feGaussianBlur stdDeviation="200" result="effect1_foregroundBlur_111_20860"/>
</filter>
<clipPath id="clip0_111_20860">
<rect width="256" height="256" rx="64" fill="white"/>
</clipPath>
</defs>
</svg>
